<svg xmlns="http://www.w3.org/2000/svg" viewBox="0 0 32 32">
  <rect width="32" height="32" rx="7" fill="#0d1117"/>
  <!-- Football scaled from Wikimedia Soccerball.svg (public domain) -->
  <!-- Original viewBox: -2500 -2500 5000 5000, ball radius 2376 -->
  <!-- Scaled to fit in a ~22px circle centred at (16,16) -->
  <g transform="translate(16,16) scale(0.0046)">
    <circle fill="#fff" r="2376" stroke="#0d1117" stroke-width="80"/>
    <path fill="#0d1117" d="m-1624-1700c243-153 498-303 856-424 141 117 253 307 372 492-288 275-562 544-724 756-274-25-410-2-740-60 3-244 84-499 236-764zm2904-40c271 248 537 498 724 788-55 262-105 553-180 704-234-35-536-125-820-200-138-357-231-625-340-924 210-156 417-296 616-368zm-3273 3033a2376 2376 0 0 1-378-1392l59-7c54 342 124 674 311 928-36 179-2 323 51 458zm1197-1125c365 60 717 120 1060 180 106 333 120 667 156 1000-263 218-625 287-944 420-372-240-523-508-736-768 122-281 257-561 464-832zm3013 678a2376 2376 0 0 1-925 1147l-116-5c84-127 114-297 118-488 232-111 464-463 696-772 86 30 159 72 227 118zm-2287 1527a2376 2376 0 0 1-993-251c199 74 367 143 542 83 53 75 176 134 451 168z"/>
  </g>
</svg>
